<?xml version="1.0" encoding="UTF-8"?><svg xmlns="http://www.w3.org/2000/svg" xmlns:xlink="http://www.w3.org/1999/xlink" width="281.25" zoomAndPan="magnify" viewBox="0 0 281.25 281.249989" height="281.249989" preserveAspectRatio="xMidYMid meet" version="1.0"><defs><clipPath id="clip-0"><path d="M 0 0 L 280.503906 0 L 280.503906 280.503906 L 0 280.503906 Z M 0 0 " clip-rule="nonzero"/></clipPath><clipPath id="clip-1"><path d="M 18.5625 119.625 L 261.664062 119.625 L 261.664062 151.789062 L 18.5625 151.789062 Z M 18.5625 119.625 " clip-rule="nonzero"/></clipPath><clipPath id="clip-2"><path d="M 18.5625 119.625 L 52 119.625 L 52 151 L 18.5625 151 Z M 18.5625 119.625 " clip-rule="nonzero"/></clipPath><clipPath id="clip-3"><path d="M 51 119.625 L 60 119.625 L 60 151 L 51 151 Z M 51 119.625 " clip-rule="nonzero"/></clipPath><clipPath id="clip-4"><path d="M 61 119.625 L 85 119.625 L 85 151 L 61 151 Z M 61 119.625 " clip-rule="nonzero"/></clipPath><clipPath id="clip-5"><path d="M 82 130 L 104 130 L 104 151.789062 L 82 151.789062 Z M 82 130 " clip-rule="nonzero"/></clipPath><clipPath id="clip-6"><path d="M 111 119.625 L 146 119.625 L 146 151 L 111 151 Z M 111 119.625 " clip-rule="nonzero"/></clipPath><clipPath id="clip-7"><path d="M 145 130 L 168 130 L 168 151.789062 L 145 151.789062 Z M 145 130 " clip-rule="nonzero"/></clipPath><clipPath id="clip-8"><path d="M 221 119.625 L 230 119.625 L 230 151 L 221 151 Z M 221 119.625 " clip-rule="nonzero"/></clipPath><clipPath id="clip-9"><path d="M 231 119.625 L 239 119.625 L 239 151 L 231 151 Z M 231 119.625 " clip-rule="nonzero"/></clipPath><clipPath id="clip-10"><path d="M 239 130 L 261.664062 130 L 261.664062 151.789062 L 239 151.789062 Z M 239 130 " clip-rule="nonzero"/></clipPath></defs><g clip-path="url(#clip-0)"><path fill="rgb(100%, 100%, 100%)" d="M 0 0 L 281.25 0 L 281.25 288.730469 L 0 288.730469 Z M 0 0 " fill-opacity="1" fill-rule="nonzero"/><path fill="rgb(100%, 100%, 100%)" d="M 0 0 L 280.503906 0 L 280.503906 280.503906 L 0 280.503906 Z M 0 0 " fill-opacity="1" fill-rule="nonzero"/><path fill="rgb(100%, 100%, 100%)" d="M 0 0 L 280.503906 0 L 280.503906 280.503906 L 0 280.503906 Z M 0 0 " fill-opacity="1" fill-rule="nonzero"/></g><g clip-path="url(#clip-1)"><rect x="-28.125" width="337.5" fill="rgb(100%, 100%, 100%)" y="-28.124999" height="337.499986" fill-opacity="1"/><rect x="-28.125" width="337.5" fill="rgb(100%, 100%, 100%)" y="-28.124999" height="337.499986" fill-opacity="1"/><rect x="-28.125" width="337.5" fill="rgb(100%, 100%, 100%)" y="-28.124999" height="337.499986" fill-opacity="1"/></g><g clip-path="url(#clip-2)"><path fill="rgb(0%, 0%, 0%)" d="M 44.421875 150.628906 L 42.972656 132.339844 L 42.785156 132.339844 L 36.464844 150.441406 L 32.269531 150.441406 L 25.957031 132.339844 L 25.769531 132.339844 L 24.308594 150.628906 L 17.273438 150.628906 L 20.042969 119.773438 L 27.523438 119.773438 L 34.371094 137.574219 L 41.210938 119.773438 L 48.6875 119.773438 L 51.460938 150.628906 Z M 44.421875 150.628906 " fill-opacity="1" fill-rule="nonzero"/></g><g clip-path="url(#clip-3)"><path fill="rgb(0%, 0%, 0%)" d="M 53.058594 120.746094 C 53.835938 119.972656 54.757812 119.585938 55.828125 119.585938 C 56.902344 119.585938 57.824219 119.972656 58.597656 120.746094 C 59.367188 121.515625 59.753906 122.4375 59.753906 123.515625 C 59.753906 124.589844 59.367188 125.511719 58.597656 126.285156 C 57.824219 127.054688 56.902344 127.441406 55.828125 127.441406 C 54.757812 127.441406 53.835938 127.054688 53.058594 126.285156 C 52.285156 125.511719 51.898438 124.589844 51.898438 123.515625 C 51.898438 122.4375 52.285156 121.515625 53.058594 120.746094 Z M 52.425781 131.4375 L 52.425781 150.628906 L 59.042969 150.628906 L 59.042969 131.4375 Z M 52.425781 131.4375 " fill-opacity="1" fill-rule="nonzero"/></g><g clip-path="url(#clip-4)"><path fill="rgb(0%, 0%, 0%)" d="M 83.765625 131.4375 L 74.636719 140.601562 L 84.664062 150.628906 L 76.132812 150.628906 L 68.464844 142.960938 L 68.464844 150.628906 L 61.847656 150.628906 L 61.847656 118.464844 L 68.464844 118.464844 L 68.464844 138.136719 L 75.160156 131.4375 Z M 83.765625 131.4375 " fill-opacity="1" fill-rule="nonzero"/></g><g clip-path="url(#clip-5)"><path fill="rgb(0%, 0%, 0%)" d="M 103.550781 141.957031 L 89.628906 141.957031 C 89.628906 143.296875 90.066406 144.292969 90.9375 144.949219 C 91.808594 145.597656 92.761719 145.917969 93.789062 145.917969 C 94.855469 145.917969 95.703125 145.777344 96.328125 145.488281 C 96.949219 145.199219 97.660156 144.632812 98.464844 143.78125 L 103.246094 146.175781 C 101.25 149.519531 97.933594 151.191406 93.300781 151.191406 C 90.40625 151.191406 87.925781 150.203125 85.855469 148.222656 C 83.789062 146.234375 82.757812 143.847656 82.757812 141.058594 C 82.757812 138.261719 83.789062 135.863281 85.855469 133.871094 C 87.925781 131.875 90.40625 130.878906 93.300781 130.878906 C 96.339844 130.878906 98.808594 131.761719 100.722656 133.519531 C 102.628906 135.28125 103.585938 137.792969 103.585938 141.058594 C 103.585938 141.5 103.574219 141.800781 103.550781 141.957031 Z M 89.816406 138.289062 L 97.109375 138.289062 C 96.960938 137.292969 96.566406 136.523438 95.929688 135.984375 C 95.296875 135.449219 94.484375 135.179688 93.488281 135.179688 C 92.386719 135.179688 91.515625 135.46875 90.867188 136.042969 C 90.21875 136.621094 89.871094 137.371094 89.816406 138.289062 Z M 89.816406 138.289062 " fill-opacity="1" fill-rule="nonzero"/></g><g clip-path="url(#clip-6)"><path fill="rgb(0%, 0%, 0%)" d="M 138.65625 150.628906 L 137.207031 132.339844 L 137.019531 132.339844 L 130.695312 150.441406 L 126.5 150.441406 L 120.191406 132.339844 L 120.003906 132.339844 L 118.542969 150.628906 L 111.503906 150.628906 L 114.277344 119.773438 L 121.753906 119.773438 L 128.605469 137.574219 L 135.441406 119.773438 L 142.921875 119.773438 L 145.691406 150.628906 Z M 138.65625 150.628906 " fill-opacity="1" fill-rule="nonzero"/></g><g clip-path="url(#clip-7)"><path fill="rgb(0%, 0%, 0%)" d="M 147.96875 148.257812 C 146.171875 146.300781 145.277344 143.902344 145.277344 141.058594 C 145.277344 138.214844 146.171875 135.808594 147.96875 133.835938 C 149.757812 131.863281 152.039062 130.878906 154.816406 130.878906 C 157.355469 130.878906 159.449219 131.679688 161.09375 133.273438 L 161.09375 131.4375 L 167.71875 131.4375 L 167.71875 150.628906 L 161.175781 150.628906 L 161.175781 148.457031 L 161.09375 148.457031 C 159.449219 150.277344 157.355469 151.191406 154.816406 151.191406 C 152.039062 151.191406 149.757812 150.214844 147.96875 148.257812 Z M 153.589844 137.808594 C 152.730469 138.648438 152.304688 139.734375 152.304688 141.058594 C 152.304688 142.375 152.710938 143.453125 153.53125 144.292969 C 154.355469 145.128906 155.441406 145.546875 156.792969 145.546875 C 158.089844 145.546875 159.160156 145.121094 159.992188 144.273438 C 160.828125 143.425781 161.246094 142.351562 161.246094 141.058594 C 161.246094 139.734375 160.8125 138.648438 159.945312 137.808594 C 159.089844 136.960938 158.035156 136.535156 156.792969 136.535156 C 155.519531 136.535156 154.453125 136.960938 153.589844 137.808594 Z M 153.589844 137.808594 " fill-opacity="1" fill-rule="nonzero"/></g><path fill="rgb(0%, 0%, 0%)" d="M 170.328125 150.628906 L 170.328125 131.4375 L 176.945312 131.4375 L 176.945312 133.460938 L 177.027344 133.460938 C 178.746094 131.738281 180.578125 130.878906 182.519531 130.878906 C 183.914062 130.878906 185.222656 131.167969 186.445312 131.742188 C 187.667969 132.320312 188.589844 133.203125 189.214844 134.394531 C 191.164062 132.050781 193.285156 130.878906 195.574219 130.878906 C 197.613281 130.878906 199.371094 131.457031 200.84375 132.605469 C 202.316406 133.753906 203.054688 135.546875 203.054688 137.984375 L 203.054688 150.628906 L 196.4375 150.628906 L 196.4375 139.785156 C 196.4375 138.765625 196.160156 137.910156 195.597656 137.222656 C 195.035156 136.539062 194.195312 136.195312 193.074219 136.195312 C 192.097656 136.195312 191.355469 136.488281 190.839844 137.070312 C 190.332031 137.65625 190.050781 138.363281 190 139.1875 L 190 150.628906 L 183.382812 150.628906 L 183.382812 139.785156 C 183.382812 138.765625 183.105469 137.910156 182.542969 137.222656 C 181.980469 136.539062 181.140625 136.195312 180.019531 136.195312 C 178.996094 136.195312 178.230469 136.515625 177.714844 137.152344 C 177.203125 137.785156 176.945312 138.539062 176.945312 139.410156 L 176.945312 150.628906 Z M 170.328125 150.628906 " fill-opacity="1" fill-rule="nonzero"/><path fill="rgb(0%, 0%, 0%)" d="M 205.292969 150.628906 L 205.292969 131.4375 L 211.910156 131.4375 L 211.910156 134.207031 L 211.988281 134.207031 C 212.035156 134.109375 212.113281 133.984375 212.222656 133.835938 C 212.339844 133.6875 212.585938 133.425781 212.960938 133.050781 C 213.335938 132.675781 213.730469 132.34375 214.152344 132.046875 C 214.578125 131.742188 215.128906 131.472656 215.800781 131.238281 C 216.476562 131 217.160156 130.878906 217.855469 130.878906 C 218.582031 130.878906 219.289062 130.980469 219.984375 131.179688 C 220.6875 131.386719 221.199219 131.585938 221.527344 131.777344 L 222.054688 132.082031 L 219.28125 137.691406 C 218.457031 136.988281 217.308594 136.640625 215.835938 136.640625 C 215.039062 136.640625 214.355469 136.816406 213.777344 137.164062 C 213.207031 137.515625 212.800781 137.941406 212.5625 138.4375 C 212.328125 138.9375 212.160156 139.363281 212.058594 139.714844 C 211.957031 140.058594 211.910156 140.328125 211.910156 140.53125 L 211.910156 150.628906 Z M 205.292969 150.628906 " fill-opacity="1" fill-rule="nonzero"/><g clip-path="url(#clip-8)"><path fill="rgb(0%, 0%, 0%)" d="M 222.675781 120.746094 C 223.453125 119.972656 224.378906 119.585938 225.445312 119.585938 C 226.523438 119.585938 227.445312 119.972656 228.214844 120.746094 C 228.988281 121.515625 229.375 122.4375 229.375 123.515625 C 229.375 124.589844 228.988281 125.511719 228.214844 126.285156 C 227.445312 127.054688 226.523438 127.441406 225.445312 127.441406 C 224.378906 127.441406 223.453125 127.054688 222.675781 126.285156 C 221.90625 125.511719 221.519531 124.589844 221.519531 123.515625 C 221.519531 122.4375 221.90625 121.515625 222.675781 120.746094 Z M 222.046875 131.4375 L 222.046875 150.628906 L 228.660156 150.628906 L 228.660156 131.4375 Z M 222.046875 131.4375 " fill-opacity="1" fill-rule="nonzero"/></g><g clip-path="url(#clip-9)"><path fill="rgb(0%, 0%, 0%)" d="M 231.46875 118.464844 L 238.082031 118.464844 L 238.082031 150.628906 L 231.46875 150.628906 Z M 231.46875 118.464844 " fill-opacity="1" fill-rule="nonzero"/></g><g clip-path="url(#clip-10)"><path fill="rgb(0%, 0%, 0%)" d="M 242.011719 148.257812 C 240.21875 146.300781 239.324219 143.902344 239.324219 141.058594 C 239.324219 138.214844 240.21875 135.808594 242.011719 133.835938 C 243.804688 131.863281 246.085938 130.878906 248.863281 130.878906 C 251.402344 130.878906 253.492188 131.679688 255.136719 133.273438 L 255.136719 131.4375 L 261.765625 131.4375 L 261.765625 150.628906 L 255.21875 150.628906 L 255.21875 148.457031 L 255.136719 148.457031 C 253.492188 150.277344 251.402344 151.191406 248.863281 151.191406 C 246.085938 151.191406 243.804688 150.214844 242.011719 148.257812 Z M 247.636719 137.808594 C 246.777344 138.648438 246.347656 139.734375 246.347656 141.058594 C 246.347656 142.375 246.757812 143.453125 247.578125 144.292969 C 248.402344 145.128906 249.488281 145.546875 250.835938 145.546875 C 252.136719 145.546875 253.203125 145.121094 254.039062 144.273438 C 254.871094 143.425781 255.289062 142.351562 255.289062 141.058594 C 255.289062 139.734375 254.859375 138.648438 253.992188 137.808594 C 253.132812 136.960938 252.082031 136.535156 250.835938 136.535156 C 249.566406 136.535156 248.5 136.960938 247.636719 137.808594 Z M 247.636719 137.808594 " fill-opacity="1" fill-rule="nonzero"/></g></svg>