<svg xmlns="http://www.w3.org/2000/svg" width="462" height="63" viewBox="0 0 462 63">
  <defs>
    <style>
      .cls-1 {
        fill-rule: evenodd;
      }
    </style>
  </defs>
  <path id="Mike_Mamrila" data-name="Mike Mamrila" class="cls-1" d="M17.5,60.082l2.433-32,11.4,31.367h7.733l11.4-31.367,2.433,32H65.767l-4.867-55H47.233L35.2,36.349,23.167,5.082H9.5l-4.867,55H17.5Zm65.667,0V25.949H71V60.082H83.167ZM80.633,17.766A7.281,7.281,0,0,0,83.2,15.2a6.851,6.851,0,0,0,.967-3.583,6.793,6.793,0,0,0-.967-3.55,7.428,7.428,0,0,0-2.567-2.583A6.705,6.705,0,0,0,77.1,4.516a6.937,6.937,0,0,0-3.6.967,7.241,7.241,0,0,0-2.583,2.567,6.855,6.855,0,0,0-.95,3.567,6.941,6.941,0,0,0,.95,3.583A7.107,7.107,0,0,0,77.1,18.716,6.793,6.793,0,0,0,80.633,17.766Zm20.9,42.317V47.549l13.133,12.533h15.6L112.433,42.916l17.1-16.967H113.8L101.533,37.882V2.749H89.366V60.082h12.167Zm53.217-1.3a16.652,16.652,0,0,0,6.883-6.6L152.9,47.849a13.045,13.045,0,0,1-3.534,2.833,8.615,8.615,0,0,1-3.9.833,9.627,9.627,0,0,1-4.183-.85,6.313,6.313,0,0,1-2.733-2.383,6.688,6.688,0,0,1-.95-3.6h24.566q0.068-1.1.1-1.467c0.022-.244.034-0.5,0.034-0.767a18.46,18.46,0,0,0-2.284-9.2,15.968,15.968,0,0,0-6.266-6.15,18.975,18.975,0,0,0-9.317-2.217,20.941,20.941,0,0,0-7.65,1.367,18.775,18.775,0,0,0-6.15,3.85,17.822,17.822,0,0,0-4.1,5.783,17.279,17.279,0,0,0-1.467,7.1,17.01,17.01,0,0,0,2.584,9.267,18.507,18.507,0,0,0,7.05,6.5,20.854,20.854,0,0,0,10.033,2.4A21.125,21.125,0,0,0,154.75,58.782Zm-15.884-23a5.014,5.014,0,0,1,2.1-1.75,7.493,7.493,0,0,1,3.167-.617,7.147,7.147,0,0,1,3.05.6,5.332,5.332,0,0,1,2.1,1.733,6.783,6.783,0,0,1,1.117,2.8H138A5.432,5.432,0,0,1,138.866,35.782Zm52.065,24.3,2.434-32,11.4,31.367H212.5l11.4-31.367,2.433,32H239.2l-4.867-55H220.665L208.631,36.349,196.6,5.082H182.931l-4.866,55h12.866Zm73.567-.1a17.176,17.176,0,0,0,5.2-3.433v3.533h12.167V25.949H269.7v3.133a14.028,14.028,0,0,0-4.933-3.1,17.243,17.243,0,0,0-6.167-1.1,16.235,16.235,0,0,0-8.783,2.383,16.574,16.574,0,0,0-5.967,6.467,19.484,19.484,0,0,0-2.15,9.217,19.12,19.12,0,0,0,2.267,9.383,17.086,17.086,0,0,0,6.1,6.467,16,16,0,0,0,8.533,2.35A15.191,15.191,0,0,0,264.5,59.982Zm-6.217-10.167a7.476,7.476,0,0,1-2.75-2.8,7.983,7.983,0,0,1-1-4,7.873,7.873,0,0,1,1.017-4,7.579,7.579,0,0,1,6.717-3.833A7.448,7.448,0,0,1,268.931,39a7.949,7.949,0,0,1,1,4.017,8.2,8.2,0,0,1-.966,4,7.226,7.226,0,0,1-2.717,2.8A8.2,8.2,0,0,1,258.281,49.816Zm41.95,10.267v-19.9a5.964,5.964,0,0,1,.7-2.933,4.924,4.924,0,0,1,1.966-1.967,5.967,5.967,0,0,1,2.934-.7,5.109,5.109,0,0,1,4.033,1.617,6.323,6.323,0,0,1,1.434,4.35V60.082h12.133v-20.2a5.3,5.3,0,0,1,.7-2.75,5.007,5.007,0,0,1,1.95-1.867,6.06,6.06,0,0,1,2.95-.683,5.142,5.142,0,0,1,3.983,1.617,6.333,6.333,0,0,1,1.483,4.45V60.082h12.167V37.349A12.6,12.6,0,0,0,345,30.782a11.581,11.581,0,0,0-4.549-4.35,13.761,13.761,0,0,0-6.617-1.55,13.035,13.035,0,0,0-6.283,1.517,19.5,19.5,0,0,0-5.517,4.717,10.337,10.337,0,0,0-4.583-4.533,14.732,14.732,0,0,0-7.051-1.7,12.217,12.217,0,0,0-5.049,1.067,21,21,0,0,0-5.117,3.467V25.949H288.064V60.082h12.167Zm64.233,0V42.249A5.922,5.922,0,0,1,365.5,38.9a8,8,0,0,1,2.717-2.517,7.022,7.022,0,0,1,3.55-.967,10.066,10.066,0,0,1,2.95.5,9.157,9.157,0,0,1,2.817,1.4L382.6,27.049a11.441,11.441,0,0,0-3.433-1.567,14.218,14.218,0,0,0-3.967-.6,12.009,12.009,0,0,0-5.9,1.55,14.835,14.835,0,0,0-4.833,4.35V25.949H352.3V60.082h12.167Zm29.767,0V25.949H382.064V60.082h12.167ZM391.7,17.766a7.281,7.281,0,0,0,2.567-2.567,6.853,6.853,0,0,0,.967-3.583,6.8,6.8,0,0,0-.967-3.55A7.428,7.428,0,0,0,391.7,5.482a6.7,6.7,0,0,0-3.533-.967,6.94,6.94,0,0,0-3.6.967,7.237,7.237,0,0,0-2.583,2.567,6.848,6.848,0,0,0-.95,3.567,6.934,6.934,0,0,0,.95,3.583,7.105,7.105,0,0,0,6.183,3.517A6.789,6.789,0,0,0,391.7,17.766Zm20.9,42.317V2.749H400.43V60.082H412.6Zm26.266-.1a17.176,17.176,0,0,0,5.2-3.433v3.533H456.23V25.949H444.063v3.133a14.019,14.019,0,0,0-4.933-3.1,17.239,17.239,0,0,0-6.167-1.1,16.235,16.235,0,0,0-8.783,2.383,16.581,16.581,0,0,0-5.967,6.467,19.484,19.484,0,0,0-2.15,9.217,19.12,19.12,0,0,0,2.267,9.383,17.086,17.086,0,0,0,6.1,6.467,16,16,0,0,0,8.533,2.35A15.187,15.187,0,0,0,438.863,59.982Zm-6.216-10.167a7.461,7.461,0,0,1-2.75-2.8,7.972,7.972,0,0,1-1-4,7.873,7.873,0,0,1,1.016-4,7.579,7.579,0,0,1,6.717-3.833,7.515,7.515,0,0,1,3.95,1.033A7.6,7.6,0,0,1,443.3,39a7.959,7.959,0,0,1,1,4.017,8.2,8.2,0,0,1-.967,4,7.226,7.226,0,0,1-2.717,2.8A8.193,8.193,0,0,1,432.647,49.816Z"/>
</svg>
